<svg xmlns:xlink="http://www.w3.org/1999/xlink" xmlns="http://www.w3.org/2000/svg" version="1.1" viewBox="0 0 487.86 464.78977272727275" style="max-height: 500px" width="487.86" height="464.78977272727275">
    
    <title>star-svgrepo-com(1)</title>
    <desc>Created with Sketch.</desc>
    <defs/>
    <g fill-rule="evenodd" fill="none" stroke-width="1" stroke="none" id="Page-1">
        <g fill-rule="nonzero" fill="#F5B845" id="star-svgrepo-com(1)">
            <path id="Shape" d="M477.794868,173.304 C476.029868,167.873 471.336868,163.915 465.686868,163.095 L318.527868,141.711 L252.715868,8.361 C250.188868,3.241 244.974868,0 239.264868,0 C233.554868,0 228.340868,3.241 225.813868,8.361 L160.001868,141.711 L12.842868,163.095 C7.19286803,163.915 2.49886803,167.873 0.734868033,173.304 C-1.03013197,178.734 0.441868033,184.695 4.53086803,188.68 L111.014868,292.478 L85.876868,439.043 C84.911868,444.67 87.225868,450.357 91.844868,453.714 C96.462868,457.068 102.585868,457.513 107.641868,454.856 L239.264868,385.657 L370.887868,454.856 C373.082868,456.009 375.479868,456.579 377.866868,456.579 C380.976868,456.579 384.071868,455.613 386.684868,453.715 C391.303868,450.359 393.617868,444.671 392.652868,439.044 L367.514868,292.479 L473.998868,188.681 C478.087868,184.694 479.559868,178.733 477.794868,173.304 Z"/>
            <path id="Shape-Copy-3" d="M1002.79487,173.304 C1001.02987,167.873 996.336868,163.915 990.686868,163.095 L843.527868,141.711 L777.715868,8.361 C775.188868,3.241 769.974868,0 764.264868,0 C758.554868,0 753.340868,3.241 750.813868,8.361 L685.001868,141.711 L537.842868,163.095 C532.192868,163.915 527.498868,167.873 525.734868,173.304 C523.969868,178.734 525.441868,184.695 529.530868,188.68 L636.014868,292.478 L610.876868,439.043 C609.911868,444.67 612.225868,450.357 616.844868,453.714 C621.462868,457.068 627.585868,457.513 632.641868,454.856 L764.264868,385.657 L895.887868,454.856 C898.082868,456.009 900.479868,456.579 902.866868,456.579 C905.976868,456.579 909.071868,455.613 911.684868,453.715 C916.303868,450.359 918.617868,444.671 917.652868,439.044 L892.514868,292.479 L998.998868,188.681 C1003.08787,184.694 1004.55987,178.733 1002.79487,173.304 Z"/>
            <path id="Shape-Copy-4" d="M1527.79487,173.304 C1526.02987,167.873 1521.33687,163.915 1515.68687,163.095 L1368.52787,141.711 L1302.71587,8.361 C1300.18887,3.241 1294.97487,0 1289.26487,0 C1283.55487,0 1278.34087,3.241 1275.81387,8.361 L1210.00187,141.711 L1062.84287,163.095 C1057.19287,163.915 1052.49887,167.873 1050.73487,173.304 C1048.96987,178.734 1050.44187,184.695 1054.53087,188.68 L1161.01487,292.478 L1135.87687,439.043 C1134.91187,444.67 1137.22587,450.357 1141.84487,453.714 C1146.46287,457.068 1152.58587,457.513 1157.64187,454.856 L1289.26487,385.657 L1420.88787,454.856 C1423.08287,456.009 1425.47987,456.579 1427.86687,456.579 C1430.97687,456.579 1434.07187,455.613 1436.68487,453.715 C1441.30387,450.359 1443.61787,444.671 1442.65287,439.044 L1417.51487,292.479 L1523.99887,188.681 C1528.08787,184.694 1529.55987,178.733 1527.79487,173.304 Z"/>
            <path id="Shape-Copy-5" d="M2065.79487,173.304 C2064.02987,167.873 2059.33687,163.915 2053.68687,163.095 L1906.52787,141.711 L1840.71587,8.361 C1838.18887,3.241 1832.97487,0 1827.26487,0 C1821.55487,0 1816.34087,3.241 1813.81387,8.361 L1748.00187,141.711 L1600.84287,163.095 C1595.19287,163.915 1590.49887,167.873 1588.73487,173.304 C1586.96987,178.734 1588.44187,184.695 1592.53087,188.68 L1699.01487,292.478 L1673.87687,439.043 C1672.91187,444.67 1675.22587,450.357 1679.84487,453.714 C1684.46287,457.068 1690.58587,457.513 1695.64187,454.856 L1827.26487,385.657 L1958.88787,454.856 C1961.08287,456.009 1963.47987,456.579 1965.86687,456.579 C1968.97687,456.579 1972.07187,455.613 1974.68487,453.715 C1979.30387,450.359 1981.61787,444.671 1980.65287,439.044 L1955.51487,292.479 L2061.99887,188.681 C2066.08787,184.694 2067.55987,178.733 2065.79487,173.304 Z"/>
            <path id="Shape-Copy-6" d="M2593.79487,173.304 C2592.02987,167.873 2587.33687,163.915 2581.68687,163.095 L2434.52787,141.711 L2368.71587,8.361 C2366.18887,3.241 2360.97487,0 2355.26487,0 C2349.55487,0 2344.34087,3.241 2341.81387,8.361 L2276.00187,141.711 L2128.84287,163.095 C2123.19287,163.915 2118.49887,167.873 2116.73487,173.304 C2114.96987,178.734 2116.44187,184.695 2120.53087,188.68 L2227.01487,292.478 L2201.87687,439.043 C2200.91187,444.67 2203.22587,450.357 2207.84487,453.714 C2212.46287,457.068 2218.58587,457.513 2223.64187,454.856 L2355.26487,385.657 L2486.88787,454.856 C2489.08287,456.009 2491.47987,456.579 2493.86687,456.579 C2496.97687,456.579 2500.07187,455.613 2502.68487,453.715 C2507.30387,450.359 2509.61787,444.671 2508.65287,439.044 L2483.51487,292.479 L2589.99887,188.681 C2594.08787,184.694 2595.55987,178.733 2593.79487,173.304 Z"/>
        </g>
    </g>
</svg>