
<svg width="167" height="196" viewBox="0 0 167 196" fill="none" xmlns="http://www.w3.org/2000/svg">
<path d="M146.438 8.62166C148.641 8.62166 150.428 6.83528 150.428 4.63166C150.428 2.42805 148.641 0.641663 146.438 0.641663C144.234 0.641663 142.448 2.42805 142.448 4.63166C142.448 6.83528 144.234 8.62166 146.438 8.62166Z" fill="black"/>
<path d="M165.396 60.9292C165.396 60.9292 134.608 20.5917 109.524 14.4666C94.1709 10.7158 88.0925 15.7383 83.5834 18.0658C79.0684 15.7442 70.3884 9.78832 57.6425 14.4666C28.1375 25.2992 1.77086 60.9292 1.77086 60.9292C-4.12081 67.5733 12.0317 71.19 25.7167 68.0575C39.4017 64.925 62 55.3117 69.8984 57.365C83.0759 60.7833 85.8642 61.0692 97.2684 57.365C105.033 54.845 127.771 64.925 141.45 68.0575C155.135 71.19 171.288 67.5733 165.396 60.9292Z" fill="#F456A2"/>
<path d="M166.458 65.0767L152.253 65.4208C152.253 65.4208 152.166 69.51 128.167 68.0575C117.568 67.4158 97.6708 72.52 88.425 75.1042C85.3392 75.9675 82.0842 75.9675 78.9983 75.1042C69.7525 72.52 49.855 67.4158 39.2558 68.0575C15.2575 69.51 15.17 65.4208 15.17 65.4208L0.96582 65.0767C0.96582 65.0767 26.9942 126.63 82.1717 127.721V127.75C82.4108 127.75 82.6442 127.738 82.8775 127.738C83.0758 127.738 83.77 127.744 83.9625 127.75C84.0092 127.75 84.5108 127.75 85.2575 127.75V127.727C140.429 126.636 166.458 65.0767 166.458 65.0767Z" fill="#F456A2"/>
<path d="M6.10498 75.0867C6.10498 75.0867 37.6867 118.51 83.5833 118.51C129.48 118.51 161.312 75.0867 161.312 75.0867C161.312 75.0867 134.246 127.225 85.2516 128.252C36.2575 129.278 6.10498 75.0867 6.10498 75.0867Z" fill="#D31378"/>
<path d="M58.0684 50.5225C58.0684 50.5225 69.7584 55.6675 83.5834 55.3817C97.4084 55.0958 108.521 50.5225 108.521 50.5225C108.521 50.5225 101.678 60.06 83.2917 60.0075C64.9109 59.955 58.0684 50.5225 58.0684 50.5225Z" fill="#D31378"/>
<path d="M25.7167 68.0575C25.7167 68.0575 56.2133 59.3483 69.8983 57.365L58.0683 50.5225C58.0683 50.5225 48.0933 58.6542 25.7167 68.0575Z" fill="#D31378"/>
<path d="M140.808 68.0575C140.808 68.0575 110.312 59.3483 96.6267 57.365L108.457 50.5225C108.457 50.5225 118.432 58.6542 140.808 68.0575Z" fill="#D31378"/>
<path d="M96.965 168.49H68.4984C56.4292 168.49 46.6409 158.702 46.6409 146.633V87.185C46.6409 75.1158 56.4292 65.3275 68.4984 65.3275H96.965C109.034 65.3275 118.823 75.1158 118.823 87.185V146.638C118.823 158.708 109.034 168.49 96.965 168.49Z" fill="#423E4C"/>
<path d="M77.2425 102.398H46.6409V97.9067H77.2425C78.485 97.9067 79.4884 98.91 79.4884 100.153C79.4884 101.389 78.485 102.398 77.2425 102.398Z" fill="black"/>
<path d="M77.2425 114.514H46.6409V110.023H77.2425C78.485 110.023 79.4884 111.026 79.4884 112.268C79.4884 113.511 78.485 114.514 77.2425 114.514Z" fill="black"/>
<path d="M77.2425 126.636H46.6409V122.144H77.2425C78.485 122.144 79.4884 123.148 79.4884 124.39C79.4884 125.627 78.485 126.636 77.2425 126.636Z" fill="black"/>
<path d="M77.2425 138.752H46.6409V134.26H77.2425C78.485 134.26 79.4884 135.263 79.4884 136.506C79.4884 137.748 78.485 138.752 77.2425 138.752Z" fill="black"/>
<path d="M77.2425 150.868H46.6409V146.376H77.2425C78.485 146.376 79.4884 147.379 79.4884 148.622C79.4884 149.864 78.485 150.868 77.2425 150.868Z" fill="black"/>
<path d="M87.0017 102.398H117.603V97.9067H87.0017C85.7592 97.9067 84.7559 98.91 84.7559 100.153C84.7501 101.389 85.7592 102.398 87.0017 102.398Z" fill="black"/>
<path d="M71.3742 85.12V65.1408H66.8826V85.12C66.8826 86.3625 67.8859 87.3658 69.1284 87.3658C70.3709 87.3658 71.3742 86.3625 71.3742 85.12Z" fill="black"/>
<path d="M83.9801 85.12V65.1408H79.4884V85.12C79.4884 86.3625 80.4917 87.3658 81.7342 87.3658C82.9767 87.3658 83.9801 86.3625 83.9801 85.12Z" fill="black"/>
<path d="M96.2417 85.12V65.1408H91.75V85.12C91.75 86.3625 92.7533 87.3658 93.9958 87.3658C95.2383 87.3658 96.2417 86.3625 96.2417 85.12Z" fill="black"/>
<path d="M87.0017 114.514H117.603V110.023H87.0017C85.7592 110.023 84.7559 111.026 84.7559 112.268C84.7501 113.511 85.7592 114.514 87.0017 114.514Z" fill="black"/>
<path d="M87.0017 126.636H117.603V122.144H87.0017C85.7592 122.144 84.7559 123.148 84.7559 124.39C84.7501 125.627 85.7592 126.636 87.0017 126.636Z" fill="black"/>
<path d="M87.0017 138.752H117.603V134.26H87.0017C85.7592 134.26 84.7559 135.263 84.7559 136.506C84.7501 137.748 85.7592 138.752 87.0017 138.752Z" fill="black"/>
<path d="M87.0017 150.868H117.603V146.376H87.0017C85.7592 146.376 84.7559 147.379 84.7559 148.622C84.7501 149.864 85.7592 150.868 87.0017 150.868Z" fill="black"/>
<path d="M88.6234 187.081H76.035C70.6625 187.081 66.3051 182.723 66.3051 177.351V168.49H98.3534V177.351C98.3534 182.723 93.9959 187.081 88.6234 187.081Z" fill="black"/>
<path d="M88.1859 168.49H75.3292V193.737C75.3292 194.985 76.3442 196 77.5926 196H85.9225C87.1709 196 88.1859 194.985 88.1859 193.737V168.49Z" fill="black"/>
</svg>
