<!-- icon666.com - MILLIONS vector ICONS FREE --><svg fill="none" viewBox="0 0 24 24" xmlns="http://www.w3.org/2000/svg"><path d="m12 2c-5.51385 0-10 4.48615-10 10 0 5.5139 4.48615 10 10 10 5.5139 0 10-4.4861 10-10 0-.0853-.0007-.1708-.0029-.2559-.0025-.0985-.0244-.1955-.0644-.2855-.04-.0901-.0974-.1713-.1688-.2392s-.1555-.121-.2474-.1564c-.092-.0354-.19-.0523-.2885-.0498s-.1955.0244-.2855.0644c-.0901.04-.1713.0973-.2392.1687s-.121.1555-.1564.2475c-.0354.0919-.0523.1899-.0498.2884.0018.072.0029.1451.0029.2178 0 4.7031-3.7969 8.5-8.5 8.5-4.70315 0-8.5-3.7969-8.5-8.5 0-4.70315 3.79685-8.5 8.5-8.5 2.6905 0 5.0793 1.24802 6.6357 3.19238l-.6533-.11523c-.1959-.03458-.3976.0101-.5606.12419-.1629.1141-.2739.28827-.3085.48421-.0346.19593.0101.39758.1242.56057.1141.163.2882.27399.4842.30857l2.4619.43359c.097.01714.1965.01499.2926-.00631.0962-.02131.1873-.06135.268-.11785.0807-.05649.1495-.12834.2024-.21142.053-.08309.089-.17579.1061-.27282l.4336-2.46191c.0211-.1109.0169-.22513-.0123-.33418s-.0826-.2101-.1563-.29561c-.0737-.08552-.1657-.15331-.2693-.1983-.1035-.04499-.2159-.06604-.3287-.06156-.1728.00704-.3379.07359-.4672.18837-.1294.11479-.2152.27076-.2427.44151l-.1241.70215c-1.8311-2.34769-4.6835-3.86035-7.8857-3.86035zm2.75 6.5c-1.2405 0-2.25 1.0095-2.25 2.25v2.5c0 1.2405 1.0095 2.25 2.25 2.25s2.25-1.0095 2.25-2.25v-2.5c0-1.2405-1.0095-2.25-2.25-2.25zm-5.36914.01465c-.91686 0-1.71266.35328-2.20898.94531-.0547.06264-.09635.13556-.12251.21449-.02617.07894-.03632.1623-.02986.24521.00646.08294.0294.16364.06747.23764.03808.0739.09052.1395.15426.1929s.13749.0936.21695.1181c.07945.0246.163.033.24576.0249.08275-.0082.16305-.0328.23619-.0723.07314-.0396.13765-.0934.18974-.1582.22968-.27398.65184-.49805 1.25098-.49805.24469 0 .49616.07496.65034.19629.1543.12136.2588.26346.2588.62696 0 .3728-.2807.7692-.98824.79-.0141-.0001-.02689-.0049-.04102-.0049-.16575.0001-.32472.0659-.44192.1831-.11721.1172-.18306.2762-.18308.4419v.0186c.00002.1658.06587.3247.18308.4419.1172.1172.27617.1831.44192.1831.0148 0 .02631-.0076.04102-.0078.38904.0088.72244.1039.91404.2412.2003.1435.2862.2803.2862.5518 0 .3593-.0958.4852-.2706.6103-.1747.1251-.4858.2139-.84956.2139-.50108 0-1.1256-.3156-1.24903-.4912-.04634-.0692-.10604-.1284-.17559-.1742-.06954-.0458-.14754-.0772-.22939-.0924-.08186-.0153-.16594-.014-.2473.0037-.08135.0177-.15835.0515-.22647.0994-.06811.0479-.12598.1089-.17019.1795-.04421.0705-.07388.1492-.08727.2314s-.01022.1662.00931.2471c.01954.081.05504.1572.10444.2242.50958.7253 1.39956 1.0225 2.27149 1.0225.54623 0 1.10696-.1116 1.57716-.4483.4702-.3366.793-.9353.793-1.6259 0-.6292-.3201-1.1814-.7715-1.5254.3399-.3643.5595-.8196.5595-1.3135 0-.68652-.3025-1.26896-.7353-1.60938-.4328-.34043-.94853-.46387-1.42384-.46387zm5.36914 1.23535c.5515 0 1 .4485 1 1v2.5c0 .5515-.4485 1-1 1s-1-.4485-1-1v-2.5c0-.551.4485-1 1-1z" fill="rgb(0,0,0)"></path></svg>