<!-- icon666.com - MILLIONS vector ICONS FREE --><svg fill="none" viewBox="0 0 24 24" xmlns="http://www.w3.org/2000/svg"><path d="m12 2c-5.51385 0-10 4.48615-10 10 0 5.5139 4.48615 10 10 10 5.5139 0 10-4.4861 10-10 0-.0853-.0007-.1708-.0029-.2559-.0025-.0985-.0244-.1955-.0644-.2855-.04-.0901-.0974-.1713-.1688-.2392s-.1555-.121-.2474-.1564c-.092-.0354-.19-.0523-.2885-.0498s-.1955.0244-.2855.0644c-.0901.04-.1713.0973-.2392.1687s-.121.1555-.1564.2475c-.0354.0919-.0523.1899-.0498.2884.0018.072.0029.1451.0029.2178 0 4.7031-3.7969 8.5-8.5 8.5-4.70315 0-8.5-3.7969-8.5-8.5 0-4.70315 3.79685-8.5 8.5-8.5 2.6905 0 5.0793 1.24802 6.6357 3.19238l-.6533-.11523c-.1959-.03458-.3976.0101-.5606.12419-.1629.1141-.2739.28827-.3085.48421-.0346.19593.0101.39758.1242.56057.1141.163.2882.27399.4842.30857l2.4619.43359c.097.01714.1965.01499.2926-.00631.0962-.02131.1873-.06135.268-.11785.0807-.05649.1495-.12834.2024-.21142.053-.08309.089-.17579.1061-.27282l.4336-2.46191c.0211-.1109.0169-.22513-.0123-.33418s-.0826-.2101-.1563-.29561c-.0737-.08552-.1657-.15331-.2693-.1983-.1035-.04499-.2159-.06604-.3287-.06156-.1728.00704-.3379.07359-.4672.18837-.1294.11479-.2152.27076-.2427.44151l-.1241.70215c-1.8311-2.34769-4.6835-3.86035-7.8857-3.86035zm1.75 6.5c-1.2405 0-2.25 1.0095-2.25 2.25v2.5c0 1.2405 1.0095 2.25 2.25 2.25s2.25-1.0095 2.25-2.25v-2.5c0-1.2405-1.0095-2.25-2.25-2.25zm-3.95215.00098c-.04897.00411-.09788.01427-.14551.03027l-1.5.5c-.3275.1095-.5045.46352-.3955.79102.1095.32703.46301.50353.79101.39553l.67676-.22561v4.88281c0 .345.28.625.625.625.34549 0 .62499-.28.62499-.626v-5.74998c0-.201-.0958-.38933-.2588-.50683-.1222-.08813-.27102-.12856-.41795-.11621zm3.95215 1.24902c.5515 0 1 .4485 1 1v2.5c0 .5515-.4485 1-1 1s-1-.4485-1-1v-2.5c0-.551.4485-1 1-1z" fill="rgb(193,194,195)"></path></svg>
