<?xml version="1.0" encoding="UTF-8"?>
<svg width="155px" height="177px" viewBox="0 0 155 177" version="1.1" xmlns="http://www.w3.org/2000/svg" xmlns:xlink="http://www.w3.org/1999/xlink">
    <!-- Generator: Sketch 50.2 (55047) - http://www.bohemiancoding.com/sketch -->
    <title>Shape</title>
    <desc>Created with Sketch.</desc>
    <defs></defs>
    <g id="Page-1" stroke="none" stroke-width="1" fill="none" fill-rule="evenodd">
        <g id="1" transform="translate(-3116.000000, -637.000000)" fill="#662D91" fill-rule="nonzero">
            <g id="Слой_1">
                <g id="Group">
                    <g transform="translate(3115.000000, 635.000000)" id="Shape">
                        <path d="M154.74,104.24 C154.46,103.52 154.14,102.84 153.77,102.18 L153.77,2.15 L52.57,51.25 L52.57,134.01 C45.15,130.71 34.73,130.74 24.46,134.83 C8.06,141.37 -1.74,155.78 2.58,167.02 C6.9,178.26 23.7,182.08 40.1,175.54 C50.14,171.54 57.7,164.59 61.06,157.22 C62.48,156.22 63.42,154.56 63.42,152.67 L63.42,58.23 L142.91,19.66 L142.91,93.85 C135.91,91.53 126.89,91.87 118.02,95.41 C102.06,101.77 92.63,116.04 96.95,127.28 C101.27,138.52 117.71,142.48 133.67,136.12 C149.63,129.75 159.06,115.49 154.74,104.24 Z"></path>
                    </g>
                </g>
            </g>
        </g>
    </g>
</svg>