<svg width="13" height="13" viewBox="0 0 13 13" fill="none" xmlns="http://www.w3.org/2000/svg">
<path d="M13 9.72575C13 10.9627 11.9836 11.9692 10.6786 11.9692C9.43629 11.9692 8.38224 10.9627 8.38224 9.72575C8.38224 8.48881 9.43629 7.48228 10.6786 7.48228C11.306 7.48228 11.6197 7.66418 11.9209 7.90672V3.04384H4.61776V10.7565C4.61776 11.9935 3.57626 13 2.29633 13C1.02896 13 0 11.9935 0 10.7565C0 9.51959 1.04151 8.51306 2.29633 8.51306C2.92375 8.51306 3.21236 8.69496 3.52606 8.9375V0H13V9.72575Z" fill="url(#paint0_linear_16_5)"/>
<defs>
<linearGradient id="paint0_linear_16_5" x1="2.5" y1="-5.5" x2="11.5" y2="16" gradientUnits="userSpaceOnUse">
<stop stop-color="#02C9B5"/>
<stop offset="1" stop-color="#F5B845"/>
</linearGradient>
</defs>
</svg>
