<svg width="17" height="15" viewBox="0 0 17 15" fill="none" xmlns="http://www.w3.org/2000/svg">
<path d="M2.05189 0.352135C1.81712 0.117521 1.53379 0 1.20208 0C0.870239 0 0.586946 0.117619 0.352135 0.352135C0.117455 0.586946 0 0.870272 0 1.20208C0 1.65279 0.200243 1.99716 0.600958 2.23503V14.1236C0.600958 14.205 0.630626 14.2755 0.690225 14.3349C0.74966 14.3943 0.820113 14.424 0.901486 14.424H1.50244C1.58382 14.424 1.65424 14.3946 1.7137 14.3349C1.77321 14.2755 1.80291 14.205 1.80291 14.1236V2.23503C2.20369 1.99703 2.40386 1.65276 2.40386 1.20208C2.40386 0.870371 2.28654 0.587078 2.05189 0.352135Z" fill="url(#paint0_linear_19_23)"/>
<path d="M16.0487 1.38068C15.9297 1.26171 15.7887 1.20221 15.626 1.20221C15.5447 1.20221 15.374 1.26789 15.1142 1.39943C14.8545 1.53096 14.5789 1.67802 14.2878 1.84076C13.997 2.00354 13.6523 2.15057 13.255 2.2821C12.8575 2.41363 12.4896 2.47931 12.1517 2.47931C11.8385 2.47931 11.5631 2.41981 11.325 2.30091C10.5362 1.93151 9.85099 1.65601 9.26862 1.47445C8.68644 1.29292 8.06045 1.20221 7.39055 1.20221C6.23232 1.20221 4.91452 1.57776 3.43711 2.329C3.07389 2.51056 2.82665 2.64519 2.69518 2.73281C2.50106 2.87687 2.40396 3.04893 2.40396 3.2493V10.2171C2.40396 10.3798 2.46356 10.5209 2.58253 10.6396C2.70133 10.7587 2.8423 10.8182 3.00508 10.8182C3.1052 10.8182 3.20835 10.79 3.31489 10.7337C5.01774 9.81964 6.47015 9.36265 7.67217 9.36265C8.12913 9.36265 8.57517 9.43153 9.01012 9.56918C9.44524 9.70692 9.80682 9.85724 10.0947 10.0199C10.3829 10.1826 10.7224 10.333 11.1137 10.4708C11.5051 10.6082 11.8917 10.6772 12.2735 10.6772C13.2376 10.6772 14.3928 10.3142 15.7386 9.58786C15.9078 9.50027 16.0313 9.41429 16.1095 9.32973C16.1878 9.24523 16.227 9.12478 16.227 8.96809V1.80304C16.227 1.64032 16.1676 1.49958 16.0487 1.38068Z" fill="url(#paint1_linear_19_23)"/>
<defs>
<linearGradient id="paint0_linear_19_23" x1="0.14814" y1="-2.5" x2="6.59955" y2="-0.932636" gradientUnits="userSpaceOnUse">
<stop stop-color="#0038FF"/>
<stop offset="1" stop-color="#35DBB3"/>
</linearGradient>
<linearGradient id="paint1_linear_19_23" x1="3.25582" y1="-0.464444" x2="10.5428" y2="14.806" gradientUnits="userSpaceOnUse">
<stop stop-color="#0038FF"/>
<stop offset="1" stop-color="#35DBB3"/>
</linearGradient>
</defs>
</svg>
