<svg width="15" height="15" viewBox="0 0 15 15" fill="none" xmlns="http://www.w3.org/2000/svg">
<path d="M9.85714 0.36616C9.69643 0.259017 9.48214 0.312589 9.32143 0.419732L4.125 4.16973H0.535714C0.214286 4.16973 0 4.38402 0 4.70545V10.0626C0 10.384 0.214286 10.5983 0.535714 10.5983H4.125L9.32143 14.4019C9.42857 14.4554 9.53571 14.509 9.64286 14.509C9.75 14.509 9.80357 14.509 9.91071 14.4554C10.0714 14.3483 10.1786 14.1876 10.1786 13.9733V0.848303C10.1786 0.634017 10.0714 0.419732 9.85714 0.36616Z" fill="url(#paint0_linear_16_14)"/>
<path d="M13.4464 3.79473C13.2321 3.58045 12.9107 3.58045 12.6964 3.79473C12.4821 4.00902 12.4821 4.33045 12.6964 4.54473C13.5 5.29473 13.9286 6.31259 13.9286 7.38402C13.9286 8.45545 13.5 9.4733 12.6964 10.2233C12.4821 10.4376 12.4821 10.759 12.6964 10.9733C12.8036 11.0804 12.9643 11.134 13.0714 11.134C13.1786 11.134 13.3393 11.0804 13.4464 10.9733C14.4643 10.009 15 8.77687 15 7.38402C15 5.99116 14.4643 4.75902 13.4464 3.79473Z" fill="url(#paint1_linear_16_14)"/>
<path d="M12.1607 5.61616C11.9464 5.40187 11.625 5.40187 11.4107 5.66973C11.1964 5.88402 11.25 6.20544 11.4643 6.41973C11.7321 6.68759 11.8929 7.06259 11.8929 7.43759C11.8929 7.81259 11.7321 8.18759 11.4643 8.45545C11.25 8.66973 11.25 8.99116 11.4107 9.20545C11.5179 9.31259 11.6786 9.36616 11.7857 9.36616C11.8929 9.36616 12.0536 9.31259 12.1607 9.20545C12.6964 8.7233 12.9643 8.08045 12.9643 7.43759C12.9643 6.79473 12.6429 6.04473 12.1607 5.61616Z" fill="url(#paint2_linear_16_14)"/>
<defs>
<linearGradient id="paint0_linear_16_14" x1="0.678571" y1="-1.5" x2="12.2246" y2="12.6027" gradientUnits="userSpaceOnUse">
<stop stop-color="#FFCC88"/>
<stop offset="1" stop-color="#FF7BAC"/>
</linearGradient>
<linearGradient id="paint1_linear_16_14" x1="12.7" y1="2.6793" x2="18.0031" y2="5.64867" gradientUnits="userSpaceOnUse">
<stop stop-color="#FFCC88"/>
<stop offset="1" stop-color="#FF7BAC"/>
</linearGradient>
<linearGradient id="paint2_linear_16_14" x1="11.387" y1="4.96455" x2="14.4808" y2="7.24654" gradientUnits="userSpaceOnUse">
<stop stop-color="#FFCC88"/>
<stop offset="1" stop-color="#FF7BAC"/>
</linearGradient>
</defs>
</svg>
