<svg width="16" height="16" viewBox="0 0 16 16" fill="none" xmlns="http://www.w3.org/2000/svg">
<path d="M7.78713 0.0047465C7.04111 0.12928 5.11775 0.327752 3.68787 0.763616C2.25798 1.32401 0.952429 2.258 0.26857 2.6316C-0.228782 2.88067 0.0820631 3.30485 0.26857 3.74072C1.88496 8.53522 4.11916 9.96345 5.61122 10.337C5.73556 9.52758 5.99589 8.60916 6.3689 7.6129C6.24457 7.6129 6.1824 7.67127 6.05806 7.67127C5.12552 7.9826 4.25127 9.16955 4.25127 9.16955C4.25127 9.16955 4.3795 7.23541 5.74721 6.73728C6.05806 6.61274 6.42719 6.61664 6.73803 6.6789L7.10716 5.92003C7.10716 5.85777 7.16544 5.86555 7.16544 5.80329C7.28978 5.42969 7.61228 4.61634 8.54482 4.61634C8.66916 4.61634 8.84789 4.61247 8.97223 4.67471C9.09657 4.79925 9.21702 4.80314 9.34136 4.92767C9.27919 3.80688 9.04606 2.49929 8.48654 0.880364C8.3622 0.506768 8.34665 -0.0575202 7.78713 0.0047465ZM6.99059 3.31264C7.73662 3.31264 8.29226 3.87693 8.29226 3.87693C8.29226 3.87693 7.73662 4.49959 6.99059 4.49959C6.24457 4.49959 5.68893 3.9353 5.68893 3.9353C5.68893 3.9353 6.30673 3.3749 6.99059 3.31264ZM4.05699 4.48013C4.34453 4.45678 4.56212 4.49958 4.56212 4.49958C4.56212 4.49958 4.44166 5.36742 3.88214 5.80328C3.32262 6.23914 2.44449 6.11461 2.44449 6.11461C2.44449 6.11461 2.56494 5.24678 3.12446 4.81091C3.40422 4.59298 3.76946 4.50347 4.05699 4.48012V4.48013ZM8.54482 5.56979C8.16658 5.55699 8.14072 6.04068 7.92313 6.36757C4.566 13.2169 7.48017 15.5129 8.0397 15.8243C8.59922 16.0733 12.2788 16.9489 15.636 10.1619C15.8846 9.85059 16.2499 9.40305 15.7525 9.09172C15.1308 8.65586 13.7554 7.53896 12.4498 6.85403C11.1443 6.1691 9.4657 5.85777 8.71967 5.6087C8.64973 5.58536 8.59885 5.57161 8.54482 5.56978V5.56979ZM8.36997 8.95551C8.64196 8.93217 8.99943 8.93606 9.34136 9.09172C9.96305 9.40305 10.2739 10.1619 10.2739 10.1619C10.2739 10.1619 9.53952 10.4771 8.85566 10.1035C8.23397 9.79222 7.92313 9.03335 7.92313 9.03335C7.92313 9.03335 8.09798 8.97887 8.36997 8.95551V8.95551ZM11.5756 10.5122C11.8553 10.4888 12.2167 10.4927 12.5275 10.6484C13.2114 10.9597 13.4601 11.7769 13.4601 11.7769C13.4601 11.7769 12.6441 12.0338 12.0224 11.6602C11.3385 11.3489 11.0899 10.59 11.0899 10.59C11.0899 10.59 11.2958 10.5355 11.5756 10.5122V10.5122ZM7.61228 11.2127C7.61228 11.2127 8.29226 12.5864 9.22479 13.0223C10.1573 13.4581 11.6533 13.139 11.6533 13.139C11.6533 13.139 10.0874 14.6957 8.71967 14.073C7.41412 13.4504 7.61228 11.2127 7.61228 11.2127Z" fill="url(#paint0_linear_17_3)"/>
<defs>
<linearGradient id="paint0_linear_17_3" x1="4.5" y1="-4.5" x2="11.5" y2="19" gradientUnits="userSpaceOnUse">
<stop stop-color="#E9253D"/>
<stop offset="1" stop-color="#B041A1"/>
</linearGradient>
</defs>
</svg>
