<svg width="24" height="24" viewBox="0 0 24 24" fill="none" xmlns="http://www.w3.org/2000/svg">
<path fill-rule="evenodd" clip-rule="evenodd" d="M1 12C1 18.0751 5.92487 23 12 23C18.0751 23 23 18.0751 23 12C23 5.92487 18.0751 1 12 1C5.92487 1 1 5.92487 1 12ZM12 0C5.37258 0 0 5.37258 0 12C0 18.6274 5.37258 24 12 24C18.6274 24 24 18.6274 24 12C24 5.37258 18.6274 0 12 0ZM14 13V8C14 6.89543 13.1046 6 12 6C10.8954 6 10 6.89543 10 8V13C10 14.1046 10.8954 15 12 15C13.1046 15 14 14.1046 14 13ZM12 5C10.3431 5 9 6.34315 9 8V13C9 14.6569 10.3431 16 12 16C13.6569 16 15 14.6569 15 13V8C15 6.34315 13.6569 5 12 5ZM8.5 13C8.5 12.7239 8.27614 12.5 8 12.5C7.72386 12.5 7.5 12.7239 7.5 13C7.5 15.3165 9.25041 17.2242 11.5007 17.4726C11.5002 17.4817 11.5 17.4908 11.5 17.5V19.5C11.5 19.7761 11.7239 20 12 20C12.2761 20 12.5 19.7761 12.5 19.5V17.5C12.5 17.4908 12.4998 17.4817 12.4993 17.4726C14.7496 17.2242 16.5 15.3165 16.5 13C16.5 12.7239 16.2761 12.5 16 12.5C15.7239 12.5 15.5 12.7239 15.5 13C15.5 14.933 13.933 16.5 12 16.5C10.067 16.5 8.5 14.933 8.5 13Z" fill="url(#paint0_linear_20_48)"/>
<defs>
<linearGradient id="paint0_linear_20_48" x1="0" y1="0" x2="28.1741" y2="21.9421" gradientUnits="userSpaceOnUse">
<stop stop-color="#A546B2"/>
<stop offset="1" stop-color="#46B251"/>
</linearGradient>
</defs>
</svg>
