<svg width="24" height="24" viewBox="0 0 24 24" fill="none" xmlns="http://www.w3.org/2000/svg">
<path fill-rule="evenodd" clip-rule="evenodd" d="M1 12C1 18.0751 5.92487 23 12 23C18.0751 23 23 18.0751 23 12C23 5.92487 18.0751 1 12 1C5.92487 1 1 5.92487 1 12ZM12 0C5.37258 0 0 5.37258 0 12C0 18.6274 5.37258 24 12 24C18.6274 24 24 18.6274 24 12C24 5.37258 18.6274 0 12 0ZM11.5182 5.48298L11.4743 5.61803L10.2712 9.32057C10.2311 9.44418 10.1159 9.52786 9.98593 9.52786H6.09285H5.95085H5.53281H5.31485C5.02424 9.52786 4.9034 9.89975 5.13852 10.0706L5.31485 10.1987L5.65304 10.4444L5.76793 10.5279L8.91749 12.8162C9.02264 12.8925 9.06664 13.028 9.02648 13.1516L7.82345 16.8541L7.77957 16.9892L7.65039 17.3867L7.58303 17.594C7.49323 17.8704 7.80957 18.1003 8.04469 17.9294L8.22102 17.8013L8.55921 17.5556L8.6741 17.4721L11.8237 15.1838C11.9288 15.1075 12.0712 15.1074 12.1763 15.1838L15.3259 17.4721L15.4408 17.5556L15.779 17.8013L15.9553 17.9294C16.1904 18.1003 16.5068 17.8704 16.417 17.594L16.3496 17.3867L16.2204 16.9892L16.1766 16.8541L14.9735 13.1516C14.9334 13.028 14.9774 12.8926 15.0825 12.8162L18.2321 10.5279L18.347 10.4444L18.6851 10.1987L18.8615 10.0706C19.0966 9.89975 18.9758 9.52786 18.6851 9.52786H18.4672H18.0492H17.9072H14.0141C13.8841 9.52786 13.7689 9.44418 13.7288 9.32057L12.5257 5.61803L12.4818 5.48298L12.3527 5.08541L12.2853 4.87812C12.1955 4.60172 11.8045 4.60172 11.7147 4.87811L11.6473 5.08541L11.5182 5.48298ZM12 7.23607L11.2223 9.62959C11.0483 10.1652 10.5491 10.5279 9.98593 10.5279H7.46923L9.50528 12.0071C9.96091 12.3382 10.1516 12.925 9.97753 13.4606L9.19983 15.8541L11.2359 14.3748C11.6915 14.0438 12.3085 14.0438 12.7641 14.3748L14.8002 15.8541L14.0225 13.4606C13.8484 12.925 14.0391 12.3382 14.4947 12.0071L16.5308 10.5279H14.0141C13.4509 10.5279 12.9517 10.1652 12.7777 9.62959L12 7.23607Z" fill="url(#paint0_linear_3_3)"/>
<defs>
<linearGradient id="paint0_linear_3_3" x1="0" y1="0" x2="28.1741" y2="21.9421" gradientUnits="userSpaceOnUse">
<stop stop-color="#92FFC8"/>
<stop offset="1" stop-color="#F5B845"/>
</linearGradient>
</defs>
</svg>
