<svg width="24" height="24" viewBox="0 0 24 24" fill="none" xmlns="http://www.w3.org/2000/svg">
<path fill-rule="evenodd" clip-rule="evenodd" d="M1 12C1 18.0751 5.92487 23 12 23C18.0751 23 23 18.0751 23 12C23 5.92487 18.0751 1 12 1C5.92487 1 1 5.92487 1 12ZM12 0C5.37258 0 0 5.37258 0 12C0 18.6274 5.37258 24 12 24C18.6274 24 24 18.6274 24 12C24 5.37258 18.6274 0 12 0ZM11 6H13.5C14.8807 6 16 7.11929 16 8.5C16 9.88071 14.8807 11 13.5 11H11V9V6ZM10 9V6V5H11H13.5C15.433 5 17 6.567 17 8.5C17 10.433 15.433 12 13.5 12H11V13H13.5C13.7761 13 14 13.2239 14 13.5C14 13.7761 13.7761 14 13.5 14H11V18H10V14H8.5C8.22386 14 8 13.7761 8 13.5C8 13.2239 8.22386 13 8.5 13H10V12H8.5C8.22386 12 8 11.7761 8 11.5C8 11.2239 8.22386 11 8.5 11H10V9Z" fill="url(#paint0_linear_1_6)"/>
<defs>
<linearGradient id="paint0_linear_1_6" x1="-10.625" y1="-10" x2="10.2701" y2="42.5425" gradientUnits="userSpaceOnUse">
<stop stop-color="#3CD3C4"/>
<stop offset="1" stop-color="#25EC8C"/>
</linearGradient>
</defs>
</svg>
