<svg width="24" height="24" viewBox="0 0 24 24" fill="none" xmlns="http://www.w3.org/2000/svg">
<path fill-rule="evenodd" clip-rule="evenodd" d="M12 23C5.92487 23 1 18.0751 1 12C1 5.92487 5.92487 1 12 1C18.0751 1 23 5.92487 23 12C23 18.0751 18.0751 23 12 23ZM0 12C0 5.37258 5.37258 0 12 0C18.6274 0 24 5.37258 24 12C24 18.6274 18.6274 24 12 24C5.37258 24 0 18.6274 0 12ZM17.6614 6.97442C17.8529 6.99975 17.99 7.15957 17.9944 7.34484C18.0751 10.8642 17.2855 13.7451 15.6138 15.9819C14.7064 17.1958 13.5697 18.1783 12.2057 18.9455C12.0818 19.0153 11.9152 19.021 11.8089 18.9455C10.4345 18.1909 9.29631 17.2012 8.38682 15.9819C6.71732 13.7436 5.9212 10.8641 6.00614 7.34484C6.02746 7.15957 6.16183 7.00003 6.35334 6.97442C7.23881 6.85588 8.11868 6.64806 8.9819 6.34319C9.84755 6.03745 10.791 5.61319 11.8089 5.05352C11.9389 4.98194 12.0613 4.98238 12.1915 5.05352C13.2164 5.61347 14.1667 6.03863 15.0256 6.34319C15.8885 6.64922 16.7688 6.85572 17.6614 6.97442ZM12.0003 18.1908C13.1977 17.4843 14.1873 16.6047 14.976 15.5498C16.4901 13.5244 17.2362 10.8985 17.2079 7.68102C16.3718 7.55063 15.5357 7.3311 14.7068 7.03605C13.8779 6.74115 12.9781 6.33632 12.0003 5.82189C11.0225 6.33632 10.1155 6.74115 9.28661 7.03605C8.45768 7.33108 7.6286 7.55063 6.79258 7.68102C6.76432 10.8778 7.50572 13.5001 9.02451 15.5498C9.80855 16.6079 10.8028 17.4842 12.0003 18.1908Z" fill="url(#paint0_linear_5_66)"/>
<defs>
<linearGradient id="paint0_linear_5_66" x1="0" y1="0" x2="28.1741" y2="21.9421" gradientUnits="userSpaceOnUse">
<stop stop-color="#92FFC8"/>
<stop offset="1" stop-color="#A546B2"/>
</linearGradient>
</defs>
</svg>
