<svg width="24" height="24" viewBox="0 0 24 24" fill="none" xmlns="http://www.w3.org/2000/svg">
<path fill-rule="evenodd" clip-rule="evenodd" d="M1 12C1 18.0751 5.92487 23 12 23C18.0751 23 23 18.0751 23 12C23 5.92487 18.0751 1 12 1C5.92487 1 1 5.92487 1 12ZM12 0C5.37258 0 0 5.37258 0 12C0 18.6274 5.37258 24 12 24C18.6274 24 24 18.6274 24 12C24 5.37258 18.6274 0 12 0ZM14 7C14 8.10457 13.1046 9 12 9C10.8954 9 10 8.10457 10 7C10 5.89543 10.8954 5 12 5C13.1046 5 14 5.89543 14 7ZM15 7C15 8.65685 13.6569 10 12 10C10.3431 10 9 8.65685 9 7C9 5.34315 10.3431 4 12 4C13.6569 4 15 5.34315 15 7ZM7.13333 8.2C7.13333 8.86274 6.59608 9.4 5.93333 9.4C5.27059 9.4 4.73333 8.86274 4.73333 8.2C4.73333 7.53726 5.27059 7 5.93333 7C6.59608 7 7.13333 7.53726 7.13333 8.2ZM8.13333 8.2C8.13333 9.41503 7.14836 10.4 5.93333 10.4C4.71831 10.4 3.73333 9.41503 3.73333 8.2C3.73333 6.98497 4.71831 6 5.93333 6C7.14836 6 8.13333 6.98497 8.13333 8.2ZM7.86667 14.0667V16H4V14.0667C4 12.9989 4.86558 12.1333 5.93333 12.1333C7.00108 12.1333 7.86667 12.9989 7.86667 14.0667ZM3 14.0667C3 12.4466 4.3133 11.1333 5.93333 11.1333C7.12764 11.1333 8.15524 11.8471 8.61285 12.8713C9.3209 11.747 10.5732 11 12 11C13.3762 11 14.5901 11.695 15.3098 12.7532C15.7917 11.7926 16.7855 11.1333 17.9333 11.1333C19.5534 11.1333 20.8667 12.4466 20.8667 14.0667V16V17H19.8667H16V18V19H15H9H8V18V17H7.86667H4H3V16V14.0667ZM16 16V15V14.0667C16 12.9989 16.8656 12.1333 17.9333 12.1333C19.0011 12.1333 19.8667 12.9989 19.8667 14.0667V16H16ZM12 12C13.6569 12 15 13.3431 15 15V16V17V18H9V15C9 13.3431 10.3431 12 12 12ZM19.1333 8.2C19.1333 8.86274 18.5961 9.4 17.9333 9.4C17.2706 9.4 16.7333 8.86274 16.7333 8.2C16.7333 7.53726 17.2706 7 17.9333 7C18.5961 7 19.1333 7.53726 19.1333 8.2ZM20.1333 8.2C20.1333 9.41503 19.1484 10.4 17.9333 10.4C16.7183 10.4 15.7333 9.41503 15.7333 8.2C15.7333 6.98497 16.7183 6 17.9333 6C19.1484 6 20.1333 6.98497 20.1333 8.2Z" fill="url(#paint0_linear_4_13)"/>
<defs>
<linearGradient id="paint0_linear_4_13" x1="0" y1="0" x2="28.1741" y2="21.9421" gradientUnits="userSpaceOnUse">
<stop stop-color="#A546B2"/>
<stop offset="1" stop-color="#F55F3E"/>
</linearGradient>
</defs>
</svg>
