<svg width="24" height="24" viewBox="0 0 24 24" fill="none" xmlns="http://www.w3.org/2000/svg">
<path fill-rule="evenodd" clip-rule="evenodd" d="M1 12C1 18.0751 5.92487 23 12 23C18.0751 23 23 18.0751 23 12C23 5.92487 18.0751 1 12 1C5.92487 1 1 5.92487 1 12ZM12 0C5.37258 0 0 5.37258 0 12C0 18.6274 5.37258 24 12 24C18.6274 24 24 18.6274 24 12C24 5.37258 18.6274 0 12 0ZM12.5 8.5C12.5 8.22386 12.2761 8 12 8C11.7239 8 11.5 8.22386 11.5 8.5V12.5V13H11.9982C11.9988 13 11.9994 13 12 13L15.6056 13C15.8817 13 16.1056 12.7761 16.1056 12.5C16.1056 12.2239 15.8817 12 15.6056 12L12.5 12V8.5ZM12.5 5.51758C16.1326 5.77396 19 8.80212 19 12.5C19 16.366 15.866 19.5 12 19.5C8.13401 19.5 5 16.366 5 12.5C5 8.80212 7.86736 5.77396 11.5 5.51758V4.5H12.5V5.51758ZM18 12.5C18 15.8137 15.3137 18.5 12 18.5C8.68629 18.5 6 15.8137 6 12.5C6 9.18629 8.68629 6.5 12 6.5C15.3137 6.5 18 9.18629 18 12.5ZM10 4C10 3.72386 10.2239 3.5 10.5 3.5H13.5C13.7761 3.5 14 3.72386 14 4C14 4.27614 13.7761 4.5 13.5 4.5H10.5C10.2239 4.5 10 4.27614 10 4Z" fill="url(#paint0_linear_5_33)"/>
<defs>
<linearGradient id="paint0_linear_5_33" x1="0" y1="0" x2="28.1741" y2="21.9421" gradientUnits="userSpaceOnUse">
<stop stop-color="#F5B845"/>
<stop offset="1" stop-color="#FF7BAC"/>
</linearGradient>
</defs>
</svg>
