<svg width="24" height="24" viewBox="0 0 24 24" fill="none" xmlns="http://www.w3.org/2000/svg">
<path fill-rule="evenodd" clip-rule="evenodd" d="M1 12C1 18.0751 5.92487 23 12 23C18.0751 23 23 18.0751 23 12C23 5.92487 18.0751 1 12 1C5.92487 1 1 5.92487 1 12ZM12 0C5.37258 0 0 5.37258 0 12C0 18.6274 5.37258 24 12 24C18.6274 24 24 18.6274 24 12C24 5.37258 18.6274 0 12 0ZM17.767 6.57726C18.0005 6.72471 18.0702 7.03352 17.9227 7.267L11.9227 16.767C11.8391 16.8994 11.6983 16.985 11.5423 16.9982C11.3863 17.0115 11.2331 16.9509 11.1284 16.8345L6.62835 11.8345C6.44362 11.6292 6.46026 11.3131 6.66552 11.1284C6.87077 10.9436 7.18692 10.9603 7.37165 11.1655L11.4299 15.6747L17.0773 6.733C17.2247 6.49953 17.5335 6.4298 17.767 6.57726Z" fill="url(#paint0_linear_1_2)"/>
<defs>
<linearGradient id="paint0_linear_1_2" x1="0" y1="0" x2="28.1741" y2="21.9421" gradientUnits="userSpaceOnUse">
<stop stop-color="#F467A1"/>
<stop offset="1" stop-color="#FFC0E0"/>
</linearGradient>
</defs>
</svg>
